<?xml version="1.0" encoding="UTF-8"?>
<svg id="Capa_1" data-name="Capa 1" xmlns="http://www.w3.org/2000/svg" xmlns:xlink="http://www.w3.org/1999/xlink" viewBox="0 0 600 759.41">
  <defs>
    <style>
      .cls-1 {
        fill: #6e40c9;
      }

      .cls-2 {
        fill: #e2e2e2;
      }

      .cls-3 {
        fill: url(#radial-gradient);
      }

      .cls-4 {
        fill: url(#linear-gradient);
      }
    </style>
    <radialGradient id="radial-gradient" cx="300.01" cy="382.24" fx="300.01" fy="382.24" r="318.36" gradientUnits="userSpaceOnUse">
      <stop offset="0" stop-color="#493277"/>
      <stop offset=".32" stop-color="#3e2c5e"/>
      <stop offset="1" stop-color="#231f20"/>
    </radialGradient>
    <linearGradient id="linear-gradient" x1="184.24" y1="154.11" x2="591.02" y2="595.16" gradientUnits="userSpaceOnUse">
      <stop offset="0" stop-color="#666163"/>
      <stop offset="1" stop-color="#6e6f71"/>
    </linearGradient>
  </defs>
  <g>
    <path class="cls-3" d="M493.89,101.67c-19.88,0-38.9-1.58-56.54-4.71-68.63-12.16-115.04-48.24-137.35-69.61-22.31,21.37-68.71,57.45-137.35,69.61-17.64,3.13-36.66,4.71-56.54,4.71-32.69,0-61.66-4.22-80.57-7.86-4.09,63.11-10.41,249.57,44.44,381.7,56.72,136.64,191.84,235.67,230.02,261.63,38.18-25.96,173.3-125,230.02-261.63,54.91-132.28,48.55-318.62,44.46-381.7-18.91,3.64-47.88,7.86-80.58,7.86Z"/>
    <path class="cls-4" d="M300,759.41c-3.35,0-6.7-.92-9.66-2.75-7.13-4.4-175.32-109.71-242.65-271.91C-19.16,323.71,3.49,93.56,4.49,83.84c.55-5.39,3.46-10.27,7.94-13.32,4.49-3.05,10.09-3.97,15.31-2.51.38.1,40.11,10.99,88.21,10.99,16.73,0,32.62-1.31,47.26-3.91C242.28,61.07,285.11,7.56,285.54,7.03c3.49-4.44,8.82-7.03,14.46-7.03s10.97,2.59,14.46,7.03c.39.5,43.9,54.16,122.35,68.06,14.63,2.59,30.52,3.91,47.25,3.91,48.1,0,87.83-10.88,88.23-11,5.21-1.45,10.81-.53,15.29,2.53,4.47,3.05,7.38,7.92,7.93,13.31,1,9.72,23.65,239.88-43.2,400.91-67.33,162.2-235.52,267.51-242.65,271.91-2.96,1.83-6.32,2.74-9.67,2.74ZM25.54,93.81c-4.09,63.11-10.41,249.57,44.44,381.7,56.72,136.64,191.84,235.67,230.02,261.63,38.18-25.96,173.3-125,230.02-261.63,54.91-132.28,48.55-318.62,44.46-381.7-18.91,3.64-47.88,7.86-80.58,7.86-19.88,0-38.9-1.58-56.54-4.71-68.63-12.16-115.04-48.24-137.35-69.61-22.31,21.37-68.71,57.45-137.35,69.61-17.64,3.13-36.66,4.71-56.54,4.71-32.69,0-61.66-4.22-80.57-7.86Z"/>
  </g>
  <g id="Backup">
    <g id="Circle">
      <circle class="cls-1" cx="428.46" cy="456.73" r="34.23"/>
      <path class="cls-2" d="M373.7,458.38c-21.45,13.31-46.62,21.19-73.77,21.19-77.27,0-139.92-62.64-139.92-139.92s62.71-139.92,139.98-139.92,139.92,62.64,139.92,139.92c0,22.45-5.43,43.57-14.83,62.38,1.13-.07,2.25-.2,3.38-.2,11.19,0,21.65,3.38,30.33,9.2,9.8-21.79,15.36-45.95,15.36-71.45,0-96.15-78-174.08-174.15-174.08s-174.15,77.94-174.15,174.15,77.94,174.15,174.15,174.15c31.25,0,60.52-8.28,85.88-22.65-7.28-9.01-11.79-20.39-12.12-32.78h-.07Z"/>
    </g>
  </g>
</svg>