<?xml version="1.0" encoding="UTF-8"?>
<svg id="Layer_2" data-name="Layer 2" xmlns="http://www.w3.org/2000/svg" viewBox="0 0 723.64 181.5">
  <defs>
    <style>
      .cls-1 {
        fill: #6e40c9;
      }

      .cls-2 {
        fill: #e2e2e2;
      }
    </style>
  </defs>
  <g id="Backup">
    <g id="Logo">
      <g id="Circle">
        <path class="cls-1" d="M70.67,76.7c-2.1,0-3.8,1.7-3.8,3.8s1.7,3.8,3.8,3.8,3.8-1.7,3.8-3.8-1.7-3.8-3.8-3.8Z"/>
        <path class="cls-2" d="M64.61,80.72c-2.24,1.3-4.83,2.06-7.61,2.06-8.39,0-15.19-6.8-15.19-15.19s6.8-15.19,15.19-15.19,15.19,6.8,15.19,15.19c0,2.46-.6,4.78-1.64,6.84.04,0,.08,0,.12,0,1.32,0,2.54.43,3.54,1.15,1.13-2.43,1.78-5.13,1.78-7.98,0-10.48-8.5-18.98-18.98-18.98s-18.98,8.5-18.98,18.98,8.5,18.98,18.98,18.98c3.24,0,6.29-.82,8.96-2.25-.81-.99-1.3-2.24-1.35-3.61Z"/>
      </g>
      <g>
        <path class="cls-1" d="M53.2,42.53c.03.9,0,2.06-.15,3.4,1.28-.23,2.6-.36,3.95-.36s2.67.13,3.95.36c-.16-1.33-.18-2.5-.15-3.4,2.91-.37,6.83-.59,11.39,0,4.75.61,8.61,1.89,11.39,3.04-1.14-4.2-3.01-5.99-4.56-6.83-3.47-1.9-6.77.2-13.67-.76-2.66-.37-4.76-1.04-6.07-1.52.51-.76,1.01-1.52,1.52-2.28-.43-1.67-.65-3.01-.76-3.8-1.35-9.34-.35-21.54,0-22.78.03-.09.13-.42,0-.76-.1-.27-.3-.47-.76-.76-.35-.22-.85-.51-1.52-.76.72-.56,1.21-1.12,1.52-1.52.49-.64.75-1,.76-1.52,0-.79-.58-1.35-.76-1.52-.8-.76-1.84-.76-2.28-.76s-1.48,0-2.28.76c-.18.17-.77.73-.76,1.52,0,.52.27.88.76,1.52.31.4.79.96,1.52,1.52-.66.25-1.17.54-1.52.76-.46.29-.66.49-.76.76-.13.34-.03.66,0,.76.35,1.24,1.35,13.44,0,22.78-.11.79-.33,2.13-.76,3.8.51.76,1.01,1.52,1.52,2.28-1.31.48-3.42,1.15-6.07,1.52-6.9.96-10.2-1.14-13.67.76-1.55.85-3.41,2.64-4.56,6.83,2.78-1.15,6.64-2.43,11.39-3.04,4.56-.59,8.48-.37,11.39,0Z"/>
        <path class="cls-1" d="M63.08,138.97c-.47-5.88-.53-10.31-.57-14.17-.14-11.79.52-25.92,1.13-36.21-2.09.66-4.32,1.02-6.63,1.02s-4.54-.36-6.63-1.02c.61,10.29,1.26,24.42,1.13,36.21-.04,3.86-.1,8.29-.57,14.17-.38,4.72-.54,5.49-.76,8.35-.32,4.13-.6,8.02,0,12.91.25,2.07.56,3.61.76,4.56.78,3.75,2.4,9.59,6.07,16.71,3.68-7.12,5.29-12.96,6.08-16.71.2-.95.51-2.49.76-4.56.6-4.89.32-8.78,0-12.91-.22-2.87-.38-3.63-.76-8.35Z"/>
      </g>
      <g>
        <path class="cls-2" d="M10.84,117.15c-3.35-10.37-7.48-27.92-5.48-51.08,3.63,1.13,9.14,2.39,15.89,2.3,5.81-.08,10.49-1.14,13.77-2.1.1-1.76.41-3.46.91-5.08-3.59,1.16-8.43,2.51-14.67,2.63-3.28.06-9.14.16-15.94-2.47-1.92-.74-3.46-1.53-4.51-2.11-1.42,13.28-1.67,33.18,5.34,55.56,0,0,10.68,36.1,46.3,66.7.06.05-.25-.26-.85-.89-30.28-31.85-40.76-63.46-40.76-63.46Z"/>
        <path class="cls-2" d="M113.19,59.23c-1.06.58-2.59,1.37-4.51,2.11-6.8,2.63-12.66,2.53-15.94,2.47-6.25-.11-11.08-1.47-14.67-2.63.49,1.62.8,3.32.91,5.08,3.28.96,7.95,2.02,13.76,2.1,6.76.09,12.26-1.17,15.89-2.3,2,23.16-2.13,40.71-5.48,51.08,0,0-10.48,31.61-40.76,63.46-.6.63-.9.94-.85.89,35.62-30.6,46.3-66.7,46.3-66.7,7.01-22.38,6.76-42.28,5.34-55.56Z"/>
      </g>
    </g>
    <g>
      <g>
        <path class="cls-2" d="M140.41,60.06v-9.21h61.4v9.21h-26.1v73.68h-10.75V60.06h-24.56Z"/>
        <path class="cls-2" d="M220.57,61c-1.88,0-3.49-.64-4.86-1.93-1.36-1.29-2.04-2.83-2.04-4.63s.68-3.39,2.04-4.66c1.36-1.27,2.98-1.9,4.86-1.9s3.55.64,4.91,1.9c1.36,1.27,2.04,2.82,2.04,4.66s-.68,3.35-2.04,4.63c-1.36,1.29-3,1.93-4.91,1.93ZM215.62,132.21v-61.4h9.21v61.4h-9.21Z"/>
        <path class="cls-2" d="M252.46,50.85v82.89h-9.21V50.85h9.21Z"/>
        <path class="cls-2" d="M280.09,50.85v82.89h-9.21V50.85h9.21Z"/>
        <path class="cls-2" d="M323.5,134.08c-5.95,0-11.08-1.32-15.4-3.97-4.32-2.65-7.64-6.34-9.97-11.09-2.33-4.74-3.5-10.28-3.5-16.61s1.14-11.9,3.42-16.72c2.28-4.82,5.5-8.59,9.67-11.31s9.04-4.08,14.63-4.08c3.27,0,6.49.54,9.67,1.63,3.18,1.09,6.06,2.83,8.65,5.24,2.59,2.41,4.66,5.58,6.2,9.52,1.54,3.93,2.31,8.75,2.31,14.45v3.43h-47.59v-7.68h42.24l-4.63,3.09c0-4.05-.63-7.64-1.9-10.79-1.27-3.14-3.15-5.61-5.65-7.39-2.5-1.78-5.6-2.68-9.31-2.68s-6.89.91-9.53,2.73c-2.64,1.82-4.66,4.19-6.06,7.12-1.4,2.92-2.09,6.06-2.09,9.41v5.57c0,4.56.79,8.43,2.37,11.61,1.58,3.18,3.79,5.59,6.64,7.23,2.85,1.64,6.14,2.46,9.89,2.46,2.42,0,4.63-.35,6.61-1.05s3.69-1.76,5.12-3.17c1.43-1.42,2.53-3.17,3.31-5.27l9.59,2.65c-.96,3.09-2.57,5.81-4.85,8.17-2.28,2.35-5.1,4.19-8.46,5.52-3.36,1.33-7.15,1.99-11.38,1.99Z"/>
        <path class="cls-2" d="M362.99,132.21v-61.4h9.21v9.21h1.87c1.15-3.13,3.19-5.64,6.14-7.53,2.94-1.89,6.26-2.84,9.97-2.84.74,0,1.62.02,2.64.05,1.02.04,1.82.07,2.42.11v9.99c-.3-.07-1.04-.18-2.22-.33-1.19-.15-2.44-.22-3.78-.22-2.96,0-5.62.62-7.97,1.85-2.35,1.23-4.19,2.92-5.53,5.08-1.33,2.15-2,4.63-2,7.42v38.62h-10.75Z"/>
        <path class="cls-2" d="M526.65,132.35c-4.17,0-7.83-.84-10.99-2.53s-5.61-4.23-7.36-7.64c-1.75-3.41-2.63-7.67-2.63-12.78v-38.6h10.75v38.34c0,4.74,1.24,8.46,3.71,11.15,2.48,2.68,5.84,4.03,10.1,4.03,2.91,0,5.52-.64,7.84-1.93,2.31-1.29,4.14-3.17,5.49-5.65,1.35-2.48,2.02-5.47,2.02-8.97v-36.96h9.21v61.4h-9.21v-15.35h1.33c-1.92,5.69-4.64,9.7-8.16,12.02-3.53,2.32-7.56,3.48-12.1,3.48Z"/>
        <path class="cls-2" d="M598.19,134.08c-5.95,0-11.08-1.32-15.4-3.97-4.32-2.65-7.64-6.34-9.97-11.09s-3.5-10.28-3.5-16.61,1.14-11.9,3.42-16.72c2.28-4.82,5.5-8.59,9.67-11.31s9.04-4.08,14.63-4.08c3.27,0,6.49.54,9.67,1.63,3.18,1.09,6.06,2.83,8.65,5.24,2.59,2.41,4.66,5.58,6.2,9.52,1.54,3.93,2.31,8.75,2.31,14.45v3.43h-47.59v-7.68h42.24l-4.63,3.09c0-4.05-.63-7.64-1.9-10.79-1.27-3.14-3.15-5.61-5.65-7.39-2.5-1.78-5.6-2.68-9.31-2.68s-6.89.91-9.53,2.73c-2.64,1.82-4.66,4.19-6.06,7.12-1.4,2.92-2.09,6.06-2.09,9.41v5.57c0,4.56.79,8.43,2.37,11.61s3.79,5.59,6.64,7.23c2.85,1.64,6.14,2.46,9.89,2.46,2.42,0,4.63-.35,6.61-1.05s3.69-1.76,5.12-3.17c1.43-1.42,2.53-3.17,3.31-5.27l9.59,2.65c-.96,3.09-2.57,5.81-4.85,8.17-2.28,2.35-5.1,4.19-8.46,5.52-3.36,1.33-7.15,1.99-11.38,1.99Z"/>
        <path class="cls-2" d="M659.83,134.1c-4.23,0-7.99-.62-11.28-1.85-3.29-1.23-6.01-3.06-8.14-5.49-2.13-2.43-3.57-5.41-4.3-8.94l9.43-2.26c.88,3.38,2.55,5.87,4.99,7.45,2.44,1.58,5.51,2.37,9.18,2.37,4.3,0,7.73-.92,10.29-2.76,2.56-1.84,3.83-4.03,3.83-6.56,0-2.13-.75-3.91-2.24-5.32-1.49-1.42-3.76-2.47-6.81-3.17l-10.26-2.43c-5.59-1.32-9.75-3.37-12.47-6.15-2.72-2.78-4.08-6.33-4.08-10.67,0-3.53.99-6.65,2.98-9.35s4.7-4.82,8.14-6.34c3.44-1.53,7.35-2.29,11.72-2.29s7.82.63,10.79,1.9c2.96,1.27,5.37,3.02,7.23,5.24,1.86,2.23,3.25,4.79,4.17,7.7l-8.99,2.32c-.85-2.21-2.25-4.21-4.22-6.01-1.97-1.8-4.94-2.7-8.91-2.7-3.68,0-6.74.85-9.19,2.54-2.44,1.69-3.67,3.83-3.67,6.4,0,2.28.83,4.11,2.48,5.49s4.28,2.49,7.89,3.34l9.32,2.21c5.59,1.32,9.73,3.37,12.41,6.15,2.68,2.78,4.03,6.28,4.03,10.51,0,3.61-1.02,6.81-3.06,9.63-2.04,2.81-4.89,5.03-8.55,6.65-3.66,1.62-7.9,2.43-12.72,2.43Z"/>
        <path class="cls-2" d="M723.64,70.81v9.21h-32.24v-9.21h32.24ZM700.62,56.99h9.21v60.35c0,2.76.52,4.77,1.56,6.04,1.04,1.27,2.77,1.9,5.19,1.9.58,0,1.32-.07,2.23-.22s1.73-.3,2.48-.44l1.89,8.39c-.96.37-2.04.64-3.25.83s-2.41.28-3.61.28c-4.95,0-8.8-1.41-11.56-4.22s-4.14-6.74-4.14-11.78v-61.13Z"/>
      </g>
      <g id="Circle-2" data-name="Circle">
        <circle class="cls-1" cx="481.69" cy="126.2" r="8.93"/>
        <path class="cls-2" d="M467.42,126.63c-5.59,3.48-12.16,5.52-19.23,5.52-20.15,0-36.48-16.33-36.48-36.48s16.33-36.48,36.48-36.48,36.48,16.33,36.48,36.48c0,5.86-1.41,11.37-3.87,16.28.3-.02.59-.04.89-.04,2.92,0,5.64.89,7.91,2.4,2.56-5.69,4-11.99,4-18.63,0-25.08-20.33-45.42-45.42-45.42s-45.42,20.33-45.42,45.42,20.33,45.42,45.42,45.42c8.15,0,15.78-2.16,22.4-5.91-1.9-2.35-3.07-5.31-3.16-8.54Z"/>
      </g>
    </g>
  </g>
</svg>