<?xml version="1.0" encoding="UTF-8"?>
<svg id="Layer_2" data-name="Layer 2" xmlns="http://www.w3.org/2000/svg" viewBox="0 0 279.72 247.45">
  <defs>
    <style>
      .cls-1 {
        fill: #6e40c9;
      }

      .cls-2 {
        fill: #e2e2e2;
      }
    </style>
  </defs>
  <g id="Backup">
    <g>
      <g>
        <path class="cls-2" d="M0,208.67v-4.41h29.39v4.41h-12.49v35.27h-5.14v-35.27H0Z"/>
        <path class="cls-2" d="M38.37,209.12c-.9,0-1.67-.31-2.32-.92-.65-.62-.98-1.36-.98-2.22s.33-1.62.98-2.23c.65-.61,1.43-.91,2.32-.91s1.7.3,2.35.91c.65.61.98,1.35.98,2.23s-.33,1.6-.98,2.22c-.65.62-1.43.92-2.35.92ZM36,243.2v-29.39h4.41v29.39h-4.41Z"/>
        <path class="cls-2" d="M53.63,204.26v39.67h-4.41v-39.67h4.41Z"/>
        <path class="cls-2" d="M66.86,204.26v39.67h-4.41v-39.67h4.41Z"/>
        <path class="cls-2" d="M87.63,244.1c-2.85,0-5.31-.63-7.37-1.9-2.07-1.27-3.66-3.04-4.77-5.31-1.12-2.27-1.67-4.92-1.67-7.95s.55-5.69,1.64-8c1.09-2.31,2.63-4.11,4.63-5.41s4.33-1.95,7-1.95c1.56,0,3.11.26,4.63.78,1.52.52,2.9,1.36,4.14,2.51,1.24,1.15,2.23,2.67,2.97,4.56.74,1.88,1.11,4.19,1.11,6.92v1.64h-22.78v-3.67h20.22l-2.21,1.48c0-1.94-.3-3.66-.91-5.16-.61-1.51-1.51-2.68-2.7-3.54-1.2-.85-2.68-1.28-4.46-1.28s-3.3.44-4.56,1.31c-1.27.87-2.23,2.01-2.9,3.41-.67,1.4-1,2.9-1,4.5v2.67c0,2.18.38,4.04,1.13,5.56s1.81,2.68,3.18,3.46c1.36.78,2.94,1.18,4.73,1.18,1.16,0,2.21-.17,3.16-.5s1.77-.84,2.45-1.52c.69-.68,1.21-1.52,1.58-2.52l4.59,1.27c-.46,1.48-1.23,2.78-2.32,3.91-1.09,1.13-2.44,2.01-4.05,2.64-1.61.63-3.42.95-5.45.95Z"/>
        <path class="cls-2" d="M106.53,243.2v-29.39h4.41v4.41h.89c.55-1.5,1.53-2.7,2.94-3.6,1.41-.91,3-1.36,4.77-1.36.35,0,.77,0,1.26.03.49.02.87.04,1.16.05v4.78c-.14-.04-.5-.09-1.06-.16-.57-.07-1.17-.11-1.81-.11-1.42,0-2.69.29-3.81.88-1.13.59-2.01,1.4-2.64,2.43-.64,1.03-.96,2.21-.96,3.55v18.48h-5.14Z"/>
        <path class="cls-2" d="M185.43,243.27c-2,0-3.75-.4-5.26-1.21s-2.69-2.03-3.52-3.66c-.84-1.63-1.26-3.67-1.26-6.12v-18.48h5.14v18.35c0,2.27.59,4.05,1.78,5.33,1.18,1.29,2.8,1.93,4.84,1.93,1.39,0,2.64-.31,3.75-.92,1.11-.62,1.98-1.52,2.63-2.71s.97-2.62.97-4.29v-17.69h4.41v29.39h-4.41v-7.35h.64c-.92,2.72-2.22,4.64-3.91,5.75-1.69,1.11-3.62,1.67-5.79,1.67Z"/>
        <path class="cls-2" d="M219.67,244.1c-2.85,0-5.31-.63-7.37-1.9-2.07-1.27-3.66-3.04-4.77-5.31s-1.67-4.92-1.67-7.95.55-5.69,1.64-8c1.09-2.31,2.63-4.11,4.63-5.41,2-1.3,4.33-1.95,7-1.95,1.56,0,3.11.26,4.63.78,1.52.52,2.9,1.36,4.14,2.51,1.24,1.15,2.23,2.67,2.97,4.56.74,1.88,1.11,4.19,1.11,6.92v1.64h-22.78v-3.67h20.22l-2.21,1.48c0-1.94-.3-3.66-.91-5.16-.61-1.51-1.51-2.68-2.7-3.54-1.2-.85-2.68-1.28-4.46-1.28s-3.3.44-4.56,1.31c-1.27.87-2.23,2.01-2.9,3.41-.67,1.4-1,2.9-1,4.5v2.67c0,2.18.38,4.04,1.13,5.56s1.81,2.68,3.18,3.46c1.36.78,2.94,1.18,4.73,1.18,1.16,0,2.21-.17,3.16-.5s1.77-.84,2.45-1.52c.69-.68,1.21-1.52,1.58-2.52l4.59,1.27c-.46,1.48-1.23,2.78-2.32,3.91-1.09,1.13-2.44,2.01-4.05,2.64-1.61.63-3.42.95-5.45.95Z"/>
        <path class="cls-2" d="M249.17,244.11c-2.02,0-3.82-.29-5.4-.88-1.58-.59-2.87-1.47-3.9-2.63-1.02-1.16-1.71-2.59-2.06-4.28l4.52-1.08c.42,1.62,1.22,2.81,2.39,3.56,1.17.76,2.64,1.14,4.4,1.14,2.06,0,3.7-.44,4.92-1.32,1.22-.88,1.84-1.93,1.84-3.14,0-1.02-.36-1.87-1.07-2.55-.71-.68-1.8-1.18-3.26-1.52l-4.91-1.16c-2.68-.63-4.67-1.62-5.97-2.94-1.3-1.33-1.95-3.03-1.95-5.11,0-1.69.47-3.18,1.43-4.48s2.25-2.31,3.9-3.04c1.65-.73,3.52-1.1,5.61-1.1s3.75.3,5.16.91c1.42.61,2.57,1.44,3.46,2.51.89,1.07,1.55,2.29,1.99,3.68l-4.3,1.11c-.4-1.06-1.08-2.02-2.02-2.88-.94-.86-2.36-1.29-4.26-1.29-1.76,0-3.23.41-4.4,1.21-1.17.81-1.76,1.83-1.76,3.06,0,1.09.4,1.97,1.19,2.63s2.05,1.19,3.78,1.6l4.46,1.06c2.68.63,4.66,1.62,5.94,2.94,1.29,1.33,1.93,3.01,1.93,5.03,0,1.73-.49,3.26-1.47,4.61-.98,1.35-2.34,2.41-4.09,3.18-1.75.77-3.78,1.16-6.09,1.16Z"/>
        <path class="cls-2" d="M279.72,213.81v4.41h-15.43v-4.41h15.43ZM268.7,207.2h4.41v28.89c0,1.32.25,2.28.75,2.89.5.61,1.33.91,2.49.91.28,0,.63-.04,1.07-.11s.83-.14,1.19-.21l.91,4.01c-.46.18-.98.31-1.56.4s-1.16.13-1.73.13c-2.37,0-4.21-.67-5.53-2.02s-1.98-3.23-1.98-5.64v-29.26Z"/>
      </g>
      <g id="Circle">
        <circle class="cls-1" cx="163.35" cy="240.32" r="4.28"/>
        <path class="cls-2" d="M156.52,240.53c-2.67,1.67-5.82,2.64-9.2,2.64-9.64,0-17.46-7.82-17.46-17.46s7.82-17.46,17.46-17.46,17.46,7.82,17.46,17.46c0,2.8-.68,5.44-1.85,7.79.14,0,.28-.02.43-.02,1.4,0,2.7.42,3.79,1.15,1.23-2.72,1.91-5.74,1.91-8.92,0-12.01-9.73-21.74-21.74-21.74s-21.74,9.73-21.74,21.74,9.73,21.74,21.74,21.74c3.9,0,7.56-1.03,10.72-2.83-.91-1.12-1.47-2.54-1.51-4.09Z"/>
      </g>
    </g>
    <g id="Logo">
      <g id="Circle-2" data-name="Circle">
        <path class="cls-1" d="M151.88,76.7c-2.1,0-3.8,1.7-3.8,3.8s1.7,3.8,3.8,3.8,3.8-1.7,3.8-3.8-1.7-3.8-3.8-3.8Z"/>
        <path class="cls-2" d="M145.82,80.72c-2.24,1.3-4.83,2.06-7.61,2.06-8.39,0-15.19-6.8-15.19-15.19s6.8-15.19,15.19-15.19,15.19,6.8,15.19,15.19c0,2.46-.6,4.78-1.64,6.84.04,0,.08,0,.12,0,1.32,0,2.54.43,3.54,1.15,1.13-2.43,1.78-5.13,1.78-7.98,0-10.48-8.5-18.98-18.98-18.98s-18.98,8.5-18.98,18.98,8.5,18.98,18.98,18.98c3.24,0,6.29-.82,8.96-2.25-.81-.99-1.3-2.24-1.35-3.61Z"/>
      </g>
      <g>
        <path class="cls-1" d="M134.42,42.53c.03.9,0,2.06-.15,3.4,1.28-.23,2.6-.36,3.95-.36s2.67.13,3.95.36c-.16-1.33-.18-2.5-.15-3.4,2.91-.37,6.83-.59,11.39,0,4.75.61,8.61,1.89,11.39,3.04-1.14-4.2-3.01-5.99-4.56-6.83-3.47-1.9-6.77.2-13.67-.76-2.66-.37-4.76-1.04-6.07-1.52.51-.76,1.01-1.52,1.52-2.28-.43-1.67-.65-3.01-.76-3.8-1.35-9.34-.35-21.54,0-22.78.03-.09.13-.42,0-.76-.1-.27-.3-.47-.76-.76-.35-.22-.85-.51-1.52-.76.72-.56,1.21-1.12,1.52-1.52.49-.64.75-1,.76-1.52,0-.79-.58-1.35-.76-1.52-.8-.76-1.84-.76-2.28-.76s-1.48,0-2.28.76c-.18.17-.77.73-.76,1.52,0,.52.27.88.76,1.52.31.4.79.96,1.52,1.52-.66.25-1.17.54-1.52.76-.46.29-.66.49-.76.76-.13.34-.03.66,0,.76.35,1.24,1.35,13.44,0,22.78-.11.79-.33,2.13-.76,3.8.51.76,1.01,1.52,1.52,2.28-1.31.48-3.42,1.15-6.07,1.52-6.9.96-10.2-1.14-13.67.76-1.55.85-3.41,2.64-4.56,6.83,2.78-1.15,6.64-2.43,11.39-3.04,4.56-.59,8.48-.37,11.39,0Z"/>
        <path class="cls-1" d="M144.29,138.97c-.47-5.88-.53-10.31-.57-14.17-.14-11.79.52-25.92,1.13-36.21-2.09.66-4.32,1.02-6.63,1.02s-4.54-.36-6.63-1.02c.61,10.29,1.26,24.42,1.13,36.21-.04,3.86-.1,8.29-.57,14.17-.38,4.72-.54,5.49-.76,8.35-.32,4.13-.6,8.02,0,12.91.25,2.07.56,3.61.76,4.56.78,3.75,2.4,9.59,6.07,16.71,3.68-7.12,5.29-12.96,6.08-16.71.2-.95.51-2.49.76-4.56.6-4.89.32-8.78,0-12.91-.22-2.87-.38-3.63-.76-8.35Z"/>
      </g>
      <g>
        <path class="cls-2" d="M92.06,117.15c-3.35-10.37-7.48-27.92-5.48-51.08,3.63,1.13,9.14,2.39,15.89,2.3,5.81-.08,10.49-1.14,13.77-2.1.1-1.76.41-3.46.91-5.08-3.59,1.16-8.43,2.51-14.67,2.63-3.28.06-9.14.16-15.94-2.47-1.92-.74-3.46-1.53-4.51-2.11-1.42,13.28-1.67,33.18,5.34,55.56,0,0,10.68,36.1,46.3,66.7.06.05-.25-.26-.85-.89-30.28-31.85-40.76-63.46-40.76-63.46Z"/>
        <path class="cls-2" d="M194.41,59.23c-1.06.58-2.59,1.37-4.51,2.11-6.8,2.63-12.66,2.53-15.94,2.47-6.25-.11-11.08-1.47-14.67-2.63.49,1.62.8,3.32.91,5.08,3.28.96,7.95,2.02,13.76,2.1,6.76.09,12.26-1.17,15.89-2.3,2,23.16-2.13,40.71-5.48,51.08,0,0-10.48,31.61-40.76,63.46-.6.63-.9.94-.85.89,35.62-30.6,46.3-66.7,46.3-66.7,7.01-22.38,6.76-42.28,5.34-55.56Z"/>
      </g>
    </g>
  </g>
</svg>