<?xml version="1.0" encoding="UTF-8"?>
<svg id="Layer_2" data-name="Layer 2" xmlns="http://www.w3.org/2000/svg" viewBox="0 0 52.6 52.6">
  <defs>
    <style>
      .cls-1 {
        fill: #6e40c9;
      }

      .cls-2 {
        fill: #e2e2e2;
      }
    </style>
  </defs>
  <g id="Backup">
    <g id="Circle">
      <circle class="cls-1" cx="45.7" cy="43.98" r="5.17"/>
      <path class="cls-2" d="M37.43,44.23c-3.24,2.01-7.04,3.2-11.14,3.2-11.67,0-21.13-9.46-21.13-21.13S14.63,5.17,26.3,5.17s21.13,9.46,21.13,21.13c0,3.39-.82,6.58-2.24,9.42.17-.01.34-.03.51-.03,1.69,0,3.27.51,4.58,1.39,1.48-3.29,2.32-6.94,2.32-10.79C52.6,11.77,40.82,0,26.3,0S0,11.77,0,26.3s11.77,26.3,26.3,26.3c4.72,0,9.14-1.25,12.97-3.42-1.1-1.36-1.78-3.08-1.83-4.95Z"/>
    </g>
  </g>
</svg>